<mxfile host="app.diagrams.net" modified="2021-04-27T09:19:56.957Z" agent="5.0 (Macintosh; Intel Mac OS X 10_15_7) AppleWebKit/537.36 (KHTML, like Gecko) Chrome/90.0.4430.85 Safari/537.36" etag="lygj6bZ9tz4YCPjr5jMH" version="14.4.8" type="github">
  <diagram id="-qrpg97gZrXBx4fRXOJH" name="Page-1">
    <mxGraphModel dx="1426" dy="794" grid="1" gridSize="10" guides="1" tooltips="1" connect="1" arrows="1" fold="1" page="1" pageScale="1" pageWidth="827" pageHeight="1169" math="0" shadow="0">
      <root>
        <mxCell id="0" />
        <mxCell id="1" parent="0" />
        <mxCell id="lmYubyvW4sESKu-8uoVQ-3" value="&lt;font style=&quot;font-size: 20px&quot;&gt;b&lt;sub&gt;0&lt;/sub&gt;&lt;/font&gt;" style="whiteSpace=wrap;html=1;aspect=fixed;strokeWidth=2;" vertex="1" parent="1">
          <mxGeometry x="270" y="290" width="80" height="80" as="geometry" />
        </mxCell>
        <mxCell id="lmYubyvW4sESKu-8uoVQ-4" value="&lt;font style=&quot;font-size: 20px&quot;&gt;b&lt;sub&gt;1&lt;/sub&gt;&lt;/font&gt;" style="whiteSpace=wrap;html=1;aspect=fixed;strokeWidth=2;fillColor=#DAE8FC;" vertex="1" parent="1">
          <mxGeometry x="350" y="290" width="80" height="80" as="geometry" />
        </mxCell>
        <mxCell id="lmYubyvW4sESKu-8uoVQ-5" value="&lt;font style=&quot;font-size: 20px&quot;&gt;b&lt;sub&gt;2&lt;/sub&gt;&lt;/font&gt;" style="whiteSpace=wrap;html=1;aspect=fixed;strokeWidth=2;fillColor=#f8cecc;" vertex="1" parent="1">
          <mxGeometry x="430" y="290" width="80" height="80" as="geometry" />
        </mxCell>
        <mxCell id="lmYubyvW4sESKu-8uoVQ-6" value="&lt;font style=&quot;font-size: 20px&quot;&gt;b&lt;sub&gt;3&lt;/sub&gt;&lt;/font&gt;" style="whiteSpace=wrap;html=1;aspect=fixed;strokeWidth=2;" vertex="1" parent="1">
          <mxGeometry x="510" y="290" width="80" height="80" as="geometry" />
        </mxCell>
        <mxCell id="lmYubyvW4sESKu-8uoVQ-7" value="" style="endArrow=classic;html=1;strokeWidth=2;" edge="1" parent="1">
          <mxGeometry width="50" height="50" relative="1" as="geometry">
            <mxPoint x="380" y="480" as="sourcePoint" />
            <mxPoint x="380" y="370" as="targetPoint" />
          </mxGeometry>
        </mxCell>
        <mxCell id="lmYubyvW4sESKu-8uoVQ-8" value="&lt;font style=&quot;font-size: 20px&quot;&gt;t&lt;sub&gt;1&lt;/sub&gt;&lt;/font&gt;" style="ellipse;whiteSpace=wrap;html=1;strokeWidth=2;fillColor=#dae8fc;" vertex="1" parent="1">
          <mxGeometry x="344" y="480" width="70" height="50" as="geometry" />
        </mxCell>
        <mxCell id="lmYubyvW4sESKu-8uoVQ-9" value="" style="endArrow=classic;html=1;strokeWidth=2;" edge="1" parent="1">
          <mxGeometry width="50" height="50" relative="1" as="geometry">
            <mxPoint x="476" y="480" as="sourcePoint" />
            <mxPoint x="476" y="370" as="targetPoint" />
          </mxGeometry>
        </mxCell>
        <mxCell id="lmYubyvW4sESKu-8uoVQ-10" value="&lt;span style=&quot;font-size: 20px&quot;&gt;t&lt;/span&gt;&lt;span style=&quot;font-size: 16.6667px&quot;&gt;2&lt;/span&gt;" style="ellipse;whiteSpace=wrap;html=1;strokeWidth=2;fillColor=#f8cecc;" vertex="1" parent="1">
          <mxGeometry x="440" y="480" width="70" height="50" as="geometry" />
        </mxCell>
        <mxCell id="lmYubyvW4sESKu-8uoVQ-13" value="" style="endArrow=classic;html=1;strokeWidth=2;entryX=0.5;entryY=1;entryDx=0;entryDy=0;dashed=1;" edge="1" parent="1" target="lmYubyvW4sESKu-8uoVQ-5">
          <mxGeometry width="50" height="50" relative="1" as="geometry">
            <mxPoint x="380" y="480" as="sourcePoint" />
            <mxPoint x="430" y="430" as="targetPoint" />
          </mxGeometry>
        </mxCell>
        <mxCell id="lmYubyvW4sESKu-8uoVQ-15" value="" style="endArrow=classic;html=1;dashed=1;strokeWidth=2;exitX=0.5;exitY=0;exitDx=0;exitDy=0;entryX=0.613;entryY=1.05;entryDx=0;entryDy=0;entryPerimeter=0;" edge="1" parent="1" source="lmYubyvW4sESKu-8uoVQ-10" target="lmYubyvW4sESKu-8uoVQ-4">
          <mxGeometry width="50" height="50" relative="1" as="geometry">
            <mxPoint x="420" y="470" as="sourcePoint" />
            <mxPoint x="380" y="370" as="targetPoint" />
          </mxGeometry>
        </mxCell>
        <mxCell id="lmYubyvW4sESKu-8uoVQ-19" value="" style="aspect=fixed;pointerEvents=1;shadow=0;dashed=0;html=1;strokeColor=none;labelPosition=center;verticalLabelPosition=bottom;verticalAlign=top;align=center;fillColor=#00188D;shape=mxgraph.mscae.enterprise.lock" vertex="1" parent="1">
          <mxGeometry x="500" y="410" width="39" height="50" as="geometry" />
        </mxCell>
      </root>
    </mxGraphModel>
  </diagram>
</mxfile>
